<svg width="13" height="14" viewBox="0 0 13 14" fill="none" xmlns="http://www.w3.org/2000/svg">
<g filter="url(#filter0_d_34_282)">
<path d="M6.90002 0.4C7.72845 0.4 8.40002 1.07157 8.40002 1.9V4.4H10.9C11.7285 4.4 12.4 5.07157 12.4 5.9V6.9C12.4 7.72843 11.7285 8.4 10.9 8.4H8.40002V10.9C8.40002 11.7284 7.72845 12.4 6.90002 12.4H5.90002C5.0716 12.4 4.40002 11.7284 4.40002 10.9V8.4H1.90002C1.0716 8.4 0.400024 7.72843 0.400024 6.9V5.9C0.400025 5.07157 1.0716 4.4 1.90002 4.4H4.40002V1.9C4.40002 1.07157 5.0716 0.4 5.90002 0.4H6.90002Z" fill="white"/>
<path d="M8.40002 4.4H8.00002V4.8H8.40002V4.4ZM10.9 4.4L10.9 4H10.9V4.4ZM12.4 5.9L12.8 5.9V5.9L12.4 5.9ZM12.4 6.9L12.8 6.9V6.9H12.4ZM10.9 8.4L10.9 8.8H10.9L10.9 8.4ZM8.40002 8.4V8H8.00002V8.4H8.40002ZM4.40002 8.4H4.80002V8H4.40002V8.4ZM1.90002 8.4L1.90002 8L1.90002 8L1.90002 8.4ZM0.400024 6.9L2.44081e-05 6.9L2.44081e-05 6.9L0.400024 6.9ZM0.400024 5.9L2.44081e-05 5.9V5.9H0.400024ZM1.90002 4.4L1.90002 4L1.90002 4L1.90002 4.4ZM4.40002 4.4V4.8H4.80002V4.4H4.40002ZM6.90002 0.4V0.8C7.50754 0.8 8.00002 1.29249 8.00002 1.9H8.40002H8.80002C8.80002 0.850659 7.94937 -3.8743e-07 6.90002 -3.8743e-07V0.4ZM8.40002 1.9H8.00002V4.4H8.40002H8.80002V1.9H8.40002ZM8.40002 4.4V4.8H10.9V4.4V4H8.40002V4.4ZM10.9 4.4L10.9 4.8C11.5075 4.8 12 5.29249 12 5.9L12.4 5.9L12.8 5.9C12.8 4.85066 11.9494 4 10.9 4L10.9 4.4ZM12.4 5.9H12V6.9H12.4H12.8V5.9H12.4ZM12.4 6.9L12 6.9C12 7.50751 11.5075 8 10.9 8L10.9 8.4L10.9 8.8C11.9494 8.8 12.8 7.94934 12.8 6.9L12.4 6.9ZM10.9 8.4V8H8.40002V8.4V8.8H10.9V8.4ZM8.40002 8.4H8.00002V10.9H8.40002H8.80002V8.4H8.40002ZM8.40002 10.9H8.00002C8.00002 11.5075 7.50754 12 6.90002 12V12.4V12.8C7.94937 12.8 8.80002 11.9493 8.80002 10.9H8.40002ZM6.90002 12.4V12H5.90002V12.4V12.8H6.90002V12.4ZM5.90002 12.4V12C5.29251 12 4.80002 11.5075 4.80002 10.9H4.40002H4.00002C4.00002 11.9493 4.85068 12.8 5.90002 12.8V12.4ZM4.40002 10.9H4.80002V8.4H4.40002H4.00002V10.9H4.40002ZM4.40002 8.4V8H1.90002V8.4V8.8H4.40002V8.4ZM1.90002 8.4L1.90002 8C1.29251 8 0.800024 7.50751 0.800024 6.9L0.400024 6.9L2.44081e-05 6.9C2.4454e-05 7.94934 0.850683 8.8 1.90002 8.8L1.90002 8.4ZM0.400024 6.9H0.800024V5.9H0.400024H2.44081e-05V6.9H0.400024ZM0.400024 5.9L0.800024 5.9C0.800024 5.29249 1.29251 4.8 1.90002 4.8L1.90002 4.4L1.90002 4C0.850683 4 2.45254e-05 4.85066 2.44081e-05 5.9L0.400024 5.9ZM1.90002 4.4V4.8H4.40002V4.4V4H1.90002V4.4ZM4.40002 4.4H4.80002V1.9H4.40002H4.00002V4.4H4.40002ZM4.40002 1.9H4.80002C4.80002 1.29249 5.29251 0.8 5.90002 0.8V0.4V-3.8743e-07C4.85068 -3.8743e-07 4.00002 0.850659 4.00002 1.9H4.40002ZM5.90002 0.4V0.8H6.90002V0.4V-3.8743e-07H5.90002V0.4Z" fill="#7A3100"/>
</g>
<defs>
<filter id="filter0_d_34_282" x="0" y="0" width="12.8" height="13.3" filterUnits="userSpaceOnUse" color-interpolation-filters="sRGB">
<feFlood flood-opacity="0" result="BackgroundImageFix"/>
<feColorMatrix in="SourceAlpha" type="matrix" values="0 0 0 0 0 0 0 0 0 0 0 0 0 0 0 0 0 0 127 0" result="hardAlpha"/>
<feOffset dy="0.5"/>
<feComposite in2="hardAlpha" operator="out"/>
<feColorMatrix type="matrix" values="0 0 0 0 0 0 0 0 0 0 0 0 0 0 0 0 0 0 0.25 0"/>
<feBlend mode="normal" in2="BackgroundImageFix" result="effect1_dropShadow_34_282"/>
<feBlend mode="normal" in="SourceGraphic" in2="effect1_dropShadow_34_282" result="shape"/>
</filter>
</defs>
</svg>
